<?xml version="1.0" encoding="utf-8"?>
<!DOCTYPE svg PUBLIC "-//W3C//DTD SVG 20010904//EN" "http://www.w3.org/TR/2001/REC-SVG-20010904/DTD/svg10.dtd">
<svg height="1024.000000pt" preserveAspectRatio="xMidYMid meet" version="1.0" viewBox="0 0 1024.000000 1024.000000" width="1024.000000pt" xmlns="http://www.w3.org/2000/svg">
<g fill="#0F2B46" stroke="#0F2B46" transform="translate(0.000000,1024.000000) scale(0.100000,-0.100000)">
<path d="M5835 8636 c-99 -31 -111 -41 -615 -471 -345 -295 -371 -315 -399 -315 -32 0 -719 140 -1370 279 -156 34 -301 61 -322 61 -33 0 -58 -14 -161 -88 -104 -75 -123 -93 -126 -118 -2 -23 3 -33 25 -45 23 -14 481 -252 1166 -607 81 -42 147 -79 147 -82 0 -3 -115 -115 -256 -250 -157 -149 -266 -246 -280 -248 -12 -2 -146 22 -298 52 -151 31 -282 53 -293 50 -10 -4 -60 -38 -111 -77 -136 -103 -145 -91 183 -248 149 -72 277 -138 286 -147 9 -9 51 -124 93 -255 42 -131 83 -253 91 -272 20 -49 49 -46 114 13 l52 47 45 245 c38 212 47 247 67 262 12 10 147 110 301 223 213 158 277 200 274 183 -3 -13 -45 -165 -94 -338 l-89 -315 1 -165 c0 -252 49 -461 161 -684 285 -573 887 -931 1518 -903 166 8 280 28 429 78 556 185 964 638 1087 1207 30 139 37 431 15 562 -20 112 -39 140 -97 140 -87 0 -102 -29 -82 -160 19 -126 12 -369 -16 -498 -57 -267 -184 -509 -368 -703 -118 -123 -232 -206 -398 -289 -219 -109 -391 -150 -630 -150 -685 0 -1263 463 -1410 1130 -9 41 -19 145 -22 231 l-6 157 378 661 378 661 225 193 c652 556 628 533 688 652 60 122 56 226 -14 296 -55 55 -174 75 -267 45z"/>
<path d="M5907 7559 c-23 -31 -22 -101 1 -129 15 -19 32 -23 122 -30 183 -15 314 -50 479 -126 101 -47 229 -129 301 -193 l45 -40 -77 -78 c-43 -43 -78 -84 -78 -90 0 -6 19 -18 43 -26 23 -8 154 -54 290 -101 137 -48 256 -86 265 -84 10 2 18 15 20 29 4 31 -142 617 -157 632 -8 8 -33 -11 -94 -70 l-82 -81 -70 61 c-139 119 -312 216 -491 276 -134 45 -226 61 -370 68 -129 6 -131 5 -147 -18z"/>
<path d="M5822 6967 c-6 -7 -12 -53 -14 -101 l-3 -88 -84 -24 c-173 -50 -275 -124 -333 -242 -31 -62 -33 -73 -33 -172 0 -95 3 -111 29 -168 61 -132 170 -196 467 -272 287 -74 349 -116 349 -232 0 -98 -61 -158 -180 -178 -110 -19 -254 10 -327 66 -35 26 -73 90 -73 122 0 37 -19 42 -157 42 -154 0 -154 0 -135 -88 41 -197 171 -317 389 -361 l88 -18 3 -89 c2 -48 8 -94 14 -101 7 -9 41 -13 113 -13 72 0 106 4 113 13 6 7 12 53 14 101 l3 88 75 19 c98 25 168 60 228 114 104 94 148 202 140 344 -6 105 -32 166 -100 234 -66 66 -159 107 -378 167 -102 27 -206 60 -232 71 -92 42 -135 114 -117 198 21 100 140 162 283 147 113 -12 194 -72 227 -168 l18 -53 128 0 128 0 -1 62 c-1 51 -8 77 -38 137 -57 116 -158 192 -306 229 l-55 14 -3 94 c-2 74 -6 97 -19 107 -24 17 -207 17 -221 -1z"/>
<path d="M3228 6273 c-56 -47 -630 -563 -690 -622 -66 -64 -76 -101 -35 -139 52 -49 53 -48 457 313 206 184 379 346 384 359 8 21 4 31 -24 63 -48 55 -54 57 -92 26z"/>
<path d="M2869 5469 c-603 -540 -543 -482 -535 -521 7 -40 39 -68 77 -68 33 0 7 -22 428 355 179 160 371 331 427 380 56 50 107 102 114 116 23 52 -14 109 -70 109 -20 0 -121 -85 -441 -371z"/>
<path d="M3423 4265 c-61 -26 -91 -114 -60 -175 44 -88 195 -93 247 -8 70 116 -56 240 -187 183z"/>
<path d="M3830 3643 l0 -628 122 3 123 3 -3 625 -2 624 -120 0 -120 0 0 -627z"/>
<path d="M1848 3620 l2 -600 115 0 115 0 0 413 1 412 143 -350 c78 -192 150 -367 159 -387 l16 -38 90 0 c76 0 92 3 100 18 5 9 73 177 151 372 78 195 145 358 149 362 3 4 5 -175 3 -397 l-3 -405 124 0 125 0 -1 600 -1 600 -163 0 -163 0 -11 -27 c-13 -33 -297 -781 -305 -803 -3 -8 -27 41 -53 110 -26 69 -98 259 -161 423 l-115 297 -160 0 -160 0 3 -600z"/>
<path d="M6517 4076 c-58 -21 -114 -62 -142 -104 -58 -88 -51 -239 16 -334 12 -16 20 -30 18 -31 -2 -1 -21 -11 -42 -21 -56 -29 -114 -82 -144 -134 -23 -39 -28 -60 -31 -137 -4 -86 -3 -93 30 -154 60 -115 163 -165 348 -165 118 -1 215 23 284 70 l38 26 37 -36 37 -36 144 0 145 0 -109 109 -109 109 37 58 c42 70 72 150 82 222 l7 53 -93 -3 -93 -3 -14 -54 c-7 -30 -23 -75 -34 -100 l-20 -46 -84 90 c-46 50 -84 92 -84 95 0 3 22 20 50 39 95 65 139 145 139 255 0 111 -60 193 -167 232 -49 17 -197 17 -246 0z m184 -159 c42 -33 52 -111 19 -164 -10 -18 -38 -42 -62 -54 l-42 -22 -29 34 c-64 75 -74 144 -28 190 25 24 37 29 78 29 26 0 55 -6 64 -13z m-54 -566 c121 -127 122 -129 100 -143 -68 -45 -187 -52 -252 -15 -76 43 -103 115 -70 193 15 38 69 94 89 94 6 0 66 -58 133 -129z"/>
<path d="M4596 3919 c-33 -5 -88 -22 -122 -38 -155 -72 -234 -213 -234 -416 0 -290 171 -466 453 -465 51 0 112 5 136 11 66 15 145 57 191 102 39 37 90 125 90 155 0 9 -30 12 -118 12 l-118 0 -23 -31 c-64 -86 -219 -91 -301 -9 -34 34 -60 94 -60 139 l0 21 321 0 321 0 -7 83 c-14 160 -53 254 -137 333 -59 55 -131 89 -218 103 -73 12 -91 12 -174 0z m134 -180 c83 -18 140 -82 140 -159 l0 -30 -191 0 -192 0 7 42 c13 79 59 129 133 147 52 12 46 12 103 0z"/>
<path d="M5570 3921 c-129 -18 -227 -77 -271 -163 -41 -80 -35 -186 13 -259 33 -50 126 -93 245 -114 199 -35 243 -56 243 -116 0 -45 -14 -65 -60 -83 -55 -22 -135 -20 -188 4 -33 15 -47 29 -60 60 l-17 40 -110 -2 -110 -3 3 -35 c9 -100 75 -176 191 -221 77 -31 296 -34 381 -6 133 44 203 138 203 271 0 159 -84 223 -359 271 -139 25 -193 68 -163 131 41 86 239 81 272 -6 l11 -30 108 0 c123 0 121 -2 92 83 -22 66 -97 131 -178 156 -75 23 -173 32 -246 22z"/>
<path d="M3370 3460 l0 -440 123 0 122 0 0 440 0 440 -122 0 -123 0 0 -440z"/>
<path d="M6800 2255 l0 -615 120 0 120 0 0 615 0 615 -120 0 -120 0 0 -615z"/>
<path d="M2180 2710 l0 -110 175 0 175 0 0 -480 0 -480 133 0 132 0 -3 480 -2 480 175 0 175 0 0 110 0 110 -480 0 -480 0 0 -110z"/>
<path d="M3630 2526 c-63 -16 -116 -51 -145 -94 l-25 -37 0 58 0 57 -120 0 -120 0 0 -435 0 -435 120 0 120 0 0 245 c0 271 4 291 63 353 53 56 100 74 186 74 l76 0 -9 108 -9 108 -30 6 c-39 8 -54 7 -107 -8z"/>
<path d="M4176 2529 c-69 -10 -160 -50 -199 -87 -38 -36 -66 -92 -74 -147 l-6 -45 116 0 116 0 22 40 c47 83 197 95 263 21 13 -15 21 -41 24 -81 l4 -60 -106 0 c-191 0 -329 -42 -404 -124 -47 -51 -62 -96 -62 -185 0 -159 110 -246 310 -245 95 0 167 25 230 81 l35 31 -4 -44 -3 -44 116 0 116 0 0 312 c0 259 -3 322 -16 370 -47 165 -228 244 -478 207z m264 -554 c0 -121 -87 -193 -223 -183 -77 6 -107 35 -107 105 0 39 5 50 35 79 42 39 89 51 208 53 l87 1 0 -55z"/>
<path d="M6073 2525 c-156 -34 -267 -143 -308 -302 -30 -113 -13 -289 36 -385 27 -54 101 -131 153 -162 165 -97 432 -77 569 43 34 31 97 139 97 168 0 10 -26 13 -119 13 l-120 0 -21 -30 c-75 -105 -270 -88 -330 29 -11 22 -22 58 -26 80 l-7 41 321 0 321 0 -5 73 c-7 98 -22 162 -52 227 -79 169 -287 253 -509 205z m233 -195 c39 -25 73 -86 74 -132 l0 -28 -191 0 -191 0 7 38 c10 56 50 111 98 133 56 26 150 21 203 -11z"/>
<path d="M7470 2530 c-69 -15 -166 -67 -200 -108 -79 -95 -79 -255 -1 -333 46 -46 115 -71 271 -98 69 -12 138 -30 155 -40 39 -22 52 -60 36 -99 -18 -42 -65 -62 -146 -62 -88 0 -133 21 -154 72 l-16 38 -109 0 -109 0 7 -46 c20 -152 156 -236 381 -236 184 -1 305 54 359 163 45 92 33 220 -27 280 -54 55 -118 78 -340 124 -116 24 -161 72 -127 136 28 52 159 68 221 26 18 -12 39 -33 46 -46 11 -23 16 -24 117 -25 121 -1 120 -2 90 87 -20 59 -86 119 -163 148 -64 24 -218 34 -291 19z"/>
<path d="M4753 2500 c3 -8 78 -199 167 -425 89 -225 165 -416 167 -422 4 -10 42 -13 142 -13 l136 0 173 433 c94 237 172 434 172 437 0 3 -58 5 -130 5 l-130 0 -38 -110 c-21 -60 -70 -201 -108 -312 -38 -112 -71 -203 -74 -203 -3 0 -53 140 -111 311 l-105 310 -133 2 c-113 2 -131 0 -128 -13z"/>
<path d="M2600 1095 l0 -165 30 0 30 0 1 103 0 102 45 -87 c33 -66 49 -88 64 -88 15 0 31 22 64 88 l45 87 0 -102 1 -103 30 0 30 0 0 165 0 165 -34 0 c-33 0 -34 -2 -82 -105 -26 -58 -51 -105 -54 -105 -4 0 -28 47 -55 105 -47 103 -48 105 -81 105 l-34 0 0 -165z"/>
<path d="M3140 1095 l0 -166 26 3 25 3 0 160 0 160 -25 3 -26 3 0 -166z"/>
<path d="M3395 1248 c-3 -8 -4 -81 -3 -163 l3 -150 103 -3 102 -3 0 31 0 30 -75 0 -76 0 2 133 1 132 -26 3 c-15 2 -28 -2 -31 -10z"/>
<path d="M3770 1095 l0 -166 108 3 107 3 3 28 3 27 -83 0 -83 0 0 40 0 40 67 0 c66 0 68 1 68 25 0 23 -3 24 -66 27 l-67 3 -1 38 -1 37 78 0 77 0 0 30 0 30 -105 0 -105 0 0 -165z"/>
<path d="M4208 1244 c-33 -18 -48 -43 -48 -82 0 -45 28 -70 105 -95 51 -16 71 -27 74 -41 8 -48 -84 -64 -117 -21 -23 29 -72 35 -72 9 0 -54 59 -88 141 -82 65 5 102 30 114 75 14 58 -19 90 -128 123 -46 14 -64 42 -41 64 23 23 81 21 96 -4 13 -21 68 -29 68 -9 0 63 -120 102 -192 63z"/>
<path d="M4636 1239 c-20 -16 -26 -29 -26 -59 0 -21 5 -42 10 -45 6 -4 -2 -21 -20 -41 -41 -47 -41 -94 -1 -135 25 -24 38 -29 80 -29 27 0 62 5 76 12 19 9 28 9 37 0 7 -7 27 -12 46 -12 l34 0 -26 30 c-24 29 -24 32 -10 71 20 60 18 69 -16 69 -25 0 -30 -4 -30 -24 0 -14 -4 -27 -8 -30 -14 -9 -113 115 -110 138 4 29 38 33 58 7 16 -22 16 -22 34 -2 18 19 17 21 -8 45 -31 32 -83 34 -120 5z m55 -186 c53 -59 54 -62 24 -73 -50 -19 -100 34 -75 80 14 26 21 25 51 -7z"/>
<path d="M4969 1258 c0 -2 -2 -15 -3 -30 -2 -27 0 -28 51 -28 l53 0 0 -135 0 -135 30 0 30 0 0 135 0 135 56 0 c54 0 55 0 52 28 l-3 27 -132 3 c-73 1 -133 1 -134 0z"/>
<path d="M5400 1096 l0 -167 28 3 c26 3 27 6 30 61 3 53 5 57 27 57 20 0 30 -11 55 -60 28 -56 33 -60 65 -60 19 0 35 2 35 5 0 3 -16 30 -35 60 l-34 54 29 29 c38 38 46 72 26 114 -23 48 -51 61 -143 66 l-83 5 0 -167z m158 92 c17 -17 15 -63 -3 -78 -8 -6 -32 -14 -55 -17 l-40 -6 0 57 0 56 43 0 c24 0 48 -5 55 -12z"/>
<path d="M5897 1253 c-9 -14 -117 -305 -117 -314 0 -5 12 -9 26 -9 21 0 29 8 41 40 l16 40 67 0 67 0 12 -40 c10 -35 16 -40 41 -40 17 0 30 4 30 9 0 5 -26 78 -59 163 -56 148 -59 153 -89 156 -16 2 -32 -1 -35 -5z m48 -110 c33 -79 32 -83 -17 -83 l-45 0 21 60 c12 33 22 60 23 60 2 0 10 -17 18 -37z"/>
<path d="M6163 1248 c3 -7 32 -80 64 -163 57 -145 60 -150 90 -153 l30 -3 56 148 c30 81 59 156 63 166 6 16 2 18 -26 15 -32 -3 -34 -5 -74 -120 -40 -112 -56 -146 -56 -118 0 7 -19 64 -41 126 l-42 114 -34 0 c-24 0 -33 -4 -30 -12z"/>
<path d="M6610 1095 l0 -165 105 0 105 0 0 30 0 30 -75 0 -75 0 0 40 0 40 65 0 c63 0 65 1 65 25 0 24 -2 25 -65 25 l-65 0 0 40 0 40 70 0 70 0 0 30 0 30 -100 0 -100 0 0 -165z"/>
<path d="M7000 1095 l0 -165 100 0 100 0 0 30 0 30 -70 0 -70 0 0 135 0 135 -30 0 -30 0 0 -165z"/>
<path d="M7373 1240 c-34 -21 -49 -55 -39 -93 10 -39 21 -47 97 -75 52 -19 75 -33 78 -47 9 -47 -84 -63 -117 -20 -23 29 -72 35 -72 9 0 -54 59 -88 143 -82 52 4 64 9 88 36 31 35 36 63 16 102 -9 19 -32 31 -87 50 -77 26 -95 45 -70 75 19 23 77 19 92 -5 13 -21 68 -29 68 -9 0 66 -124 104 -197 59z"/>
</g>
</svg>